<?xml version="1.0" encoding="UTF-8" standalone="no"?><svg width="21" height="20" viewBox="0 0 21 20" fill="none" xmlns="http://www.w3.org/2000/svg">
<path d="M3.63871 6.49486C3.29453 6.49486 3.0025 6.61488 2.76245 6.85493C2.5224 7.09498 2.40234 7.38303 2.40234 7.71923V12.8812C2.40234 13.2258 2.52237 13.5176 2.76245 13.7577C3.0025 13.9977 3.29453 14.1178 3.63871 14.1178C3.98264 14.1178 4.27289 13.9978 4.50922 13.7577C4.74508 13.5176 4.86334 13.2258 4.86334 12.8812V7.71923C4.86334 7.383 4.74331 7.09498 4.50323 6.85493C4.26314 6.61488 3.97491 6.49486 3.63871 6.49486ZM13.5787 1.86097L14.431 0.288619C14.487 0.184523 14.4671 0.104699 14.3711 0.0485699C14.267 0.000169966 14.187 0.024695 14.1311 0.120411L13.2668 1.70533C12.5063 1.36909 11.702 1.20067 10.8538 1.20067C10.0054 1.20067 9.20102 1.36913 8.44081 1.70533L7.57651 0.120411C7.52035 0.024695 7.44034 0.000386685 7.33646 0.0485699C7.24031 0.104952 7.22041 0.184523 7.27658 0.288619L8.12896 1.86097C7.26466 2.30173 6.57629 2.91558 6.06412 3.70385C5.55195 4.49255 5.29576 5.35443 5.29576 6.291H16.3998C16.3998 5.35464 16.1435 4.49273 15.6314 3.70385C15.1192 2.91558 14.4348 2.30173 13.5787 1.86097ZM8.65081 4.14797C8.55863 4.24036 8.44854 4.28634 8.32057 4.28634C8.19235 4.28634 8.08449 4.24036 7.99651 4.14797C7.90852 4.05601 7.86453 3.94635 7.86453 3.81795C7.86453 3.68998 7.90852 3.5801 7.99651 3.48793C8.08449 3.39597 8.1926 3.34999 8.32057 3.34999C8.44854 3.34999 8.55863 3.39597 8.65081 3.48793C8.74277 3.58032 8.78897 3.68998 8.78897 3.81795C8.78871 3.94614 8.74255 4.05601 8.65081 4.14797ZM13.7106 4.14797C13.6225 4.24036 13.5143 4.28634 13.3866 4.28634C13.2583 4.28634 13.1483 4.24036 13.0563 4.14797C12.9641 4.05601 12.9182 3.94635 12.9182 3.81795C12.9182 3.68998 12.9641 3.5801 13.0563 3.48793C13.1483 3.39597 13.2583 3.34999 13.3866 3.34999C13.5146 3.34999 13.6224 3.39597 13.7106 3.48793C13.7987 3.58032 13.8426 3.68998 13.8426 3.81795C13.8426 3.94614 13.7986 4.05601 13.7106 4.14797ZM5.34343 14.7179C5.34343 15.0864 5.4714 15.3983 5.72738 15.6543C5.98358 15.9103 6.2955 16.0382 6.66374 16.0382H7.55213L7.5643 18.7636C7.5643 19.1077 7.68433 19.4 7.92438 19.6401C8.16443 19.8801 8.45269 20.0002 8.78868 20.0002C9.13264 20.0002 9.42485 19.8801 9.66493 19.6401C9.90502 19.4 10.025 19.1078 10.025 18.7636V16.0385H11.6816V18.7636C11.6816 19.1077 11.8016 19.4 12.0417 19.6401C12.2818 19.8801 12.5737 20.0002 12.9179 20.0002C13.2619 20.0002 13.5541 19.8801 13.7942 19.6401C14.0343 19.4 14.1543 19.1078 14.1543 18.7636V16.0385H15.0547C15.4147 16.0385 15.7227 15.9105 15.9791 15.6545C16.235 15.3985 16.3631 15.0866 16.3631 14.7182V6.72274H5.34343V14.7179ZM18.0684 6.49486C17.7322 6.49486 17.4442 6.61312 17.2041 6.84897C16.964 7.08527 16.844 7.37552 16.844 7.71923V12.8812C16.844 13.2258 16.964 13.5176 17.2041 13.7577C17.4442 13.9978 17.7324 14.1178 18.0684 14.1178C18.4124 14.1178 18.7046 13.9978 18.9447 13.7577C19.1848 13.5176 19.3048 13.2258 19.3048 12.8812V7.71923C19.3048 7.37549 19.1848 7.08527 18.9447 6.84897C18.7046 6.61312 18.4124 6.49486 18.0684 6.49486Z" fill="white"/>
</svg>
