<?xml version="1.0" encoding="UTF-8" standalone="no"?><svg width="17" height="20" viewBox="0 0 17 20" fill="none" xmlns="http://www.w3.org/2000/svg">
<path d="M11.7351 3.31173C11.0371 4.13819 9.92033 4.79005 8.80357 4.69692C8.66398 3.57946 9.21072 2.39215 9.85053 1.65882C10.5485 0.809081 11.77 0.203788 12.7587 0.157227C12.8751 1.32125 12.4214 2.462 11.7351 3.31173ZM12.7471 4.91809C11.1301 4.82497 9.74583 5.83767 8.97807 5.83767C8.19866 5.83767 7.02374 4.96465 5.74413 4.98793C4.08063 5.01121 2.53346 5.95407 1.68426 7.45567C-0.060671 10.4588 1.23058 14.9054 2.91734 17.3499C3.74328 18.5605 4.73207 19.8875 6.03495 19.8409C7.26803 19.7943 7.75661 19.0377 9.24562 19.0377C10.7463 19.0377 11.1767 19.8409 12.4796 19.8176C13.829 19.7943 14.6782 18.607 15.5041 17.3964C16.4464 16.0229 16.8302 14.6843 16.8535 14.6144C16.8302 14.5911 14.2478 13.6017 14.2245 10.6218C14.2012 8.1308 16.2602 6.94349 16.3533 6.87365C15.19 5.1509 13.3753 4.96465 12.7471 4.91809Z" fill="white"/>
</svg>
