<?xml version="1.0" encoding="UTF-8" standalone="no"?><svg width="19" height="18" viewBox="0 0 19 18" fill="none" xmlns="http://www.w3.org/2000/svg">
<path d="M6.85352 4.3125C6.54602 4.3125 6.29102 4.0575 6.29102 3.75V1.5C6.29102 1.1925 6.54602 0.9375 6.85352 0.9375C7.16102 0.9375 7.41602 1.1925 7.41602 1.5V3.75C7.41602 4.0575 7.16102 4.3125 6.85352 4.3125Z" fill="white"/>
<path d="M12.8535 4.3125C12.546 4.3125 12.291 4.0575 12.291 3.75V1.5C12.291 1.1925 12.546 0.9375 12.8535 0.9375C13.161 0.9375 13.416 1.1925 13.416 1.5V3.75C13.416 4.0575 13.161 4.3125 12.8535 4.3125Z" fill="white"/>
<path d="M16.2285 7.37997H3.47852C3.17102 7.37997 2.91602 7.12497 2.91602 6.81747C2.91602 6.50997 3.17102 6.25497 3.47852 6.25497H16.2285C16.536 6.25497 16.791 6.50997 16.791 6.81747C16.791 7.12497 16.536 7.37997 16.2285 7.37997Z" fill="white"/>
<path d="M12.8535 17.0625H6.85352C4.11602 17.0625 2.54102 15.4875 2.54102 12.75V6.375C2.54102 3.6375 4.11602 2.0625 6.85352 2.0625H12.8535C15.591 2.0625 17.166 3.6375 17.166 6.375V12.75C17.166 15.4875 15.591 17.0625 12.8535 17.0625ZM6.85352 3.1875C4.70852 3.1875 3.66602 4.23 3.66602 6.375V12.75C3.66602 14.895 4.70852 15.9375 6.85352 15.9375H12.8535C14.9985 15.9375 16.041 14.895 16.041 12.75V6.375C16.041 4.23 14.9985 3.1875 12.8535 3.1875H6.85352Z" fill="white"/>
<path d="M7.22852 10.875C7.13102 10.875 7.03351 10.8525 6.94351 10.815C6.85351 10.7775 6.77102 10.725 6.69602 10.6575C6.62852 10.5825 6.57601 10.5 6.53851 10.41C6.50101 10.32 6.47852 10.2225 6.47852 10.125C6.47852 9.93001 6.56102 9.73502 6.69602 9.59252C6.77102 9.52502 6.85351 9.4725 6.94351 9.435C7.07851 9.375 7.22852 9.36 7.37852 9.39C7.42352 9.3975 7.46852 9.4125 7.51352 9.435C7.55852 9.45 7.60351 9.47252 7.64851 9.50252C7.68601 9.53252 7.72351 9.56252 7.76101 9.59252C7.79101 9.63002 7.82851 9.66751 7.85101 9.70501C7.88101 9.75001 7.90353 9.79501 7.91853 9.84001C7.94103 9.88501 7.95602 9.93 7.96352 9.975C7.97102 10.0275 7.97852 10.0725 7.97852 10.125C7.97852 10.32 7.89601 10.515 7.76101 10.6575C7.61851 10.7925 7.42352 10.875 7.22852 10.875Z" fill="white"/>
<path d="M9.85352 10.875C9.65852 10.875 9.46352 10.7925 9.32102 10.6575C9.29102 10.62 9.26103 10.5825 9.23103 10.545C9.20103 10.5 9.17851 10.455 9.16351 10.41C9.14101 10.365 9.12601 10.32 9.11851 10.275C9.11101 10.2225 9.10352 10.1775 9.10352 10.125C9.10352 10.0275 9.12601 9.92999 9.16351 9.83999C9.20101 9.74999 9.25352 9.6675 9.32102 9.5925C9.53102 9.3825 9.86852 9.31499 10.1385 9.43499C10.236 9.47249 10.311 9.525 10.386 9.5925C10.521 9.735 10.6035 9.93 10.6035 10.125C10.6035 10.1775 10.596 10.2225 10.5885 10.275C10.581 10.32 10.566 10.365 10.5435 10.41C10.5285 10.455 10.506 10.5 10.476 10.545C10.446 10.5825 10.416 10.62 10.386 10.6575C10.311 10.725 10.236 10.7775 10.1385 10.815C10.0485 10.8525 9.95102 10.875 9.85352 10.875Z" fill="white"/>
<path d="M7.22852 13.5C7.13102 13.5 7.03351 13.4775 6.94351 13.44C6.85351 13.4025 6.77102 13.35 6.69602 13.2825C6.62852 13.2075 6.57601 13.1325 6.53851 13.035C6.50101 12.945 6.47852 12.8475 6.47852 12.75C6.47852 12.555 6.56102 12.36 6.69602 12.2175C6.77102 12.15 6.85351 12.0975 6.94351 12.06C7.22101 11.94 7.55101 12.0075 7.76101 12.2175C7.79101 12.255 7.82851 12.2925 7.85101 12.33C7.88101 12.375 7.90353 12.42 7.91853 12.465C7.94103 12.51 7.95602 12.555 7.96352 12.6075C7.97102 12.6525 7.97852 12.705 7.97852 12.75C7.97852 12.945 7.89601 13.14 7.76101 13.2825C7.61851 13.4175 7.42352 13.5 7.22852 13.5Z" fill="white"/>
</svg>
