<?xml version="1.0" encoding="UTF-8" standalone="no"?><svg width="21" height="20" viewBox="0 0 21 20" fill="none" xmlns="http://www.w3.org/2000/svg">
<path d="M7.52051 4.7915C7.17884 4.7915 6.89551 4.50817 6.89551 4.1665V1.6665C6.89551 1.32484 7.17884 1.0415 7.52051 1.0415C7.86217 1.0415 8.14551 1.32484 8.14551 1.6665V4.1665C8.14551 4.50817 7.86217 4.7915 7.52051 4.7915Z" fill="black"/>
<path d="M14.1865 4.7915C13.8449 4.7915 13.5615 4.50817 13.5615 4.1665V1.6665C13.5615 1.32484 13.8449 1.0415 14.1865 1.0415C14.5282 1.0415 14.8115 1.32484 14.8115 1.6665V4.1665C14.8115 4.50817 14.5282 4.7915 14.1865 4.7915Z" fill="black"/>
<path d="M16.0202 18.4583C14.2035 18.4583 12.7285 16.9833 12.7285 15.1667C12.7285 13.35 14.2035 11.875 16.0202 11.875C17.8368 11.875 19.3118 13.35 19.3118 15.1667C19.3118 16.9833 17.8368 18.4583 16.0202 18.4583ZM16.0202 13.125C14.8952 13.125 13.9785 14.0417 13.9785 15.1667C13.9785 16.2917 14.8952 17.2083 16.0202 17.2083C17.1452 17.2083 18.0618 16.2917 18.0618 15.1667C18.0618 14.0417 17.1452 13.125 16.0202 13.125Z" fill="black"/>
<path d="M19.1867 18.9582C19.0284 18.9582 18.8701 18.8999 18.7451 18.7749L17.9117 17.9415C17.6701 17.6999 17.6701 17.2999 17.9117 17.0582C18.1534 16.8165 18.5534 16.8165 18.7951 17.0582L19.6284 17.8915C19.87 18.1332 19.87 18.5332 19.6284 18.7749C19.5034 18.8999 19.3451 18.9582 19.1867 18.9582Z" fill="black"/>
<path d="M7.93685 12.0832C7.82852 12.0832 7.72018 12.0582 7.62018 12.0166C7.51184 11.9749 7.42018 11.9166 7.34518 11.8416C7.31184 11.7999 7.27018 11.7582 7.24518 11.7166C7.21185 11.6666 7.18685 11.6166 7.17018 11.5666C7.14518 11.5166 7.12852 11.4666 7.12019 11.4166C7.11185 11.3582 7.10352 11.2999 7.10352 11.2499C7.10352 11.0332 7.19518 10.8166 7.34518 10.6582C7.42018 10.5832 7.51184 10.5249 7.62018 10.4832C7.92018 10.3499 8.29519 10.4249 8.52852 10.6582C8.67852 10.8166 8.77018 11.0332 8.77018 11.2499C8.77018 11.2999 8.76185 11.3582 8.75351 11.4166C8.74518 11.4666 8.72851 11.5166 8.70351 11.5666C8.68685 11.6166 8.66185 11.6666 8.62852 11.7166C8.59518 11.7582 8.56185 11.7999 8.52852 11.8416C8.37019 11.9916 8.15352 12.0832 7.93685 12.0832Z" fill="black"/>
<path d="M10.8538 12.0835C10.6372 12.0835 10.4205 11.9918 10.2622 11.8418C10.1122 11.6835 10.0205 11.4752 10.0205 11.2502C10.0205 11.1418 10.0455 11.0335 10.0872 10.9335C10.1288 10.8335 10.1872 10.7418 10.2622 10.6585C10.5705 10.3502 11.1288 10.3502 11.4455 10.6585C11.5955 10.8168 11.6872 11.0335 11.6872 11.2502C11.6872 11.3002 11.6788 11.3585 11.6705 11.4168C11.6622 11.4668 11.6455 11.5168 11.6205 11.5668C11.6038 11.6168 11.5788 11.6668 11.5455 11.7168C11.5122 11.7585 11.4788 11.8001 11.4455 11.8418C11.2872 11.9918 11.0705 12.0835 10.8538 12.0835Z" fill="black"/>
<path d="M7.93685 15C7.72018 15 7.50351 14.9083 7.34518 14.7583C7.19518 14.6 7.10352 14.3833 7.10352 14.1667C7.10352 14.0583 7.12852 13.95 7.17018 13.85C7.21185 13.7417 7.27018 13.65 7.34518 13.575C7.65351 13.2667 8.22019 13.2667 8.52852 13.575C8.67852 13.7333 8.77018 13.95 8.77018 14.1667C8.77018 14.3833 8.67852 14.6 8.52852 14.7583C8.37019 14.9083 8.15352 15 7.93685 15Z" fill="black"/>
<path d="M17.9372 8.2002H3.77051C3.42884 8.2002 3.14551 7.91686 3.14551 7.5752C3.14551 7.23353 3.42884 6.9502 3.77051 6.9502H17.9372C18.2788 6.9502 18.5622 7.23353 18.5622 7.5752C18.5622 7.91686 18.2788 8.2002 17.9372 8.2002Z" fill="black"/>
<path d="M11.9952 18.9582H7.52018C4.47852 18.9582 2.72852 17.2082 2.72852 14.1665V7.08317C2.72852 4.0415 4.47852 2.2915 7.52018 2.2915H14.1868C17.2285 2.2915 18.9785 4.0415 18.9785 7.08317V10.8332C18.9785 11.1748 18.6952 11.4582 18.3535 11.4582C18.0118 11.4582 17.7285 11.1748 17.7285 10.8332V7.08317C17.7285 4.69984 16.5702 3.5415 14.1868 3.5415H7.52018C5.13685 3.5415 3.97852 4.69984 3.97852 7.08317V14.1665C3.97852 16.5498 5.13685 17.7082 7.52018 17.7082H11.9952C12.3368 17.7082 12.6202 17.9915 12.6202 18.3332C12.6202 18.6748 12.3368 18.9582 11.9952 18.9582Z" fill="black"/>
</svg>
