<?xml version="1.0" encoding="UTF-8" standalone="no"?><svg width="25" height="24" viewBox="0 0 25 24" fill="none" xmlns="http://www.w3.org/2000/svg">
<g clip-path="url(#clip0_1041_1369)">
<path d="M3.85352 5.97474C3.85352 5.40234 4.05622 4.93012 4.46162 4.55808C4.86702 4.18602 5.39406 4 6.0427 4C6.67978 4 7.19521 4.18315 7.58904 4.54949C7.99444 4.92727 8.19714 5.41951 8.19714 6.02626C8.19714 6.57575 8.00024 7.03365 7.60641 7.39999C7.20101 7.77777 6.66819 7.96666 6.00796 7.96666H5.99058C5.35351 7.96666 4.83808 7.77777 4.44425 7.39999C4.05042 7.02222 3.85352 6.54713 3.85352 5.97474ZM4.07938 21V9.52928H7.93653V21H4.07938ZM10.0736 21H13.9307V14.5949C13.9307 14.1942 13.9771 13.8852 14.0697 13.6677C14.2319 13.2784 14.478 12.9493 14.8081 12.6803C15.1383 12.4113 15.5524 12.2768 16.0504 12.2768C17.3477 12.2768 17.9964 13.1411 17.9964 14.8697V21H21.8535V14.4232C21.8535 12.7289 21.4481 11.4439 20.6373 10.5682C19.8265 9.69241 18.7551 9.25454 17.423 9.25454C15.9288 9.25454 14.7647 9.88989 13.9307 11.1606V11.1949H13.9134L13.9307 11.1606V9.52928H10.0736C10.0968 9.89561 10.1083 11.0347 10.1083 12.9464C10.1083 14.8582 10.0968 17.5427 10.0736 21Z" fill="white"/>
</g>
<defs>
<clipPath id="clip0_1041_1369">
<rect width="18" height="17" fill="white" transform="translate(3.85352 4)"/>
</clipPath>
</defs>
</svg>
