<?xml version="1.0" encoding="UTF-8" standalone="no"?><svg width="25" height="24" viewBox="0 0 25 24" fill="none" xmlns="http://www.w3.org/2000/svg">
<path d="M18.1935 5.46C17.9562 5.46 17.7242 5.53038 17.5268 5.66224C17.3295 5.79409 17.1757 5.98151 17.0849 6.20078C16.994 6.42005 16.9703 6.66133 17.0166 6.89411C17.0629 7.12689 17.1772 7.34071 17.345 7.50853C17.5128 7.67635 17.7266 7.79064 17.9594 7.83694C18.1922 7.88324 18.4335 7.85948 18.6527 7.76866C18.872 7.67783 19.0594 7.52402 19.1913 7.32668C19.3231 7.12935 19.3935 6.89734 19.3935 6.66C19.3935 6.34174 19.2671 6.03652 19.042 5.81147C18.817 5.58643 18.5118 5.46 18.1935 5.46ZM22.7935 7.88C22.7741 7.0503 22.6187 6.2294 22.3335 5.45C22.0792 4.78313 21.6835 4.17928 21.1735 3.68C20.6783 3.16743 20.0731 2.77418 19.4035 2.53C18.6262 2.23616 17.8044 2.07721 16.9735 2.06C15.9135 2 15.5735 2 12.8535 2C10.1335 2 9.79352 2 8.73352 2.06C7.90267 2.07721 7.08086 2.23616 6.30352 2.53C5.63519 2.77665 5.03045 3.16956 4.53352 3.68C4.02094 4.17518 3.62769 4.78044 3.38352 5.45C3.08968 6.22734 2.93073 7.04915 2.91352 7.88C2.85352 8.94 2.85352 9.28 2.85352 12C2.85352 14.72 2.85352 15.06 2.91352 16.12C2.93073 16.9508 3.08968 17.7727 3.38352 18.55C3.62769 19.2196 4.02094 19.8248 4.53352 20.32C5.03045 20.8304 5.63519 21.2234 6.30352 21.47C7.08086 21.7638 7.90267 21.9228 8.73352 21.94C9.79352 22 10.1335 22 12.8535 22C15.5735 22 15.9135 22 16.9735 21.94C17.8044 21.9228 18.6262 21.7638 19.4035 21.47C20.0731 21.2258 20.6783 20.8326 21.1735 20.32C21.6858 19.8226 22.0819 19.2182 22.3335 18.55C22.6187 17.7706 22.7741 16.9497 22.7935 16.12C22.7935 15.06 22.8535 14.72 22.8535 12C22.8535 9.28 22.8535 8.94 22.7935 7.88ZM20.9935 16C20.9862 16.6348 20.8713 17.2637 20.6535 17.86C20.4938 18.2952 20.2374 18.6884 19.9035 19.01C19.5792 19.3405 19.1867 19.5964 18.7535 19.76C18.1572 19.9778 17.5283 20.0927 16.8935 20.1C15.8935 20.15 15.5235 20.16 12.8935 20.16C10.2635 20.16 9.89352 20.16 8.89352 20.1C8.23441 20.1123 7.57811 20.0109 6.95352 19.8C6.5393 19.6281 6.16487 19.3728 5.85352 19.05C5.5216 18.7287 5.26836 18.3352 5.11352 17.9C4.86937 17.2952 4.73396 16.6519 4.71352 16C4.71352 15 4.65352 14.63 4.65352 12C4.65352 9.37 4.65352 9 4.71352 8C4.718 7.35106 4.83647 6.70795 5.06352 6.1C5.23956 5.67791 5.50978 5.30166 5.85352 5C6.15733 4.65617 6.5328 4.3831 6.95352 4.2C7.56307 3.98004 8.20551 3.86508 8.85352 3.86C9.85352 3.86 10.2235 3.8 12.8535 3.8C15.4835 3.8 15.8535 3.8 16.8535 3.86C17.4883 3.86728 18.1172 3.98225 18.7135 4.2C19.1679 4.36865 19.5758 4.64285 19.9035 5C20.2312 5.30718 20.4873 5.68273 20.6535 6.1C20.8758 6.70893 20.9908 7.35178 20.9935 8C21.0435 9 21.0535 9.37 21.0535 12C21.0535 14.63 21.0435 15 20.9935 16ZM12.8535 6.87C11.8393 6.87198 10.8485 7.17453 10.0062 7.73942C9.16386 8.30431 8.50789 9.1062 8.12115 10.0438C7.73441 10.9813 7.63424 12.0125 7.83331 13.0069C8.03238 14.0014 8.52175 14.9145 9.23959 15.631C9.95743 16.3474 10.8715 16.835 11.8664 17.0321C12.8612 17.2293 13.8922 17.1271 14.829 16.7385C15.7658 16.35 16.5664 15.6924 17.1296 14.849C17.6929 14.0056 17.9935 13.0142 17.9935 12C17.9948 11.3251 17.8627 10.6566 17.6048 10.033C17.3468 9.40931 16.9681 8.84281 16.4904 8.36605C16.0127 7.88929 15.4455 7.51168 14.8213 7.25493C14.1972 6.99818 13.5284 6.86736 12.8535 6.87ZM12.8535 15.33C12.1949 15.33 11.5511 15.1347 11.0035 14.7688C10.4559 14.4029 10.029 13.8828 9.777 13.2743C9.52496 12.6659 9.45901 11.9963 9.5875 11.3503C9.71599 10.7044 10.0331 10.111 10.4988 9.64533C10.9646 9.17963 11.5579 8.86247 12.2039 8.73398C12.8498 8.6055 13.5194 8.67144 14.1279 8.92348C14.7363 9.17552 15.2564 9.60234 15.6223 10.15C15.9882 10.6976 16.1835 11.3414 16.1835 12C16.1835 12.4373 16.0974 12.8703 15.93 13.2743C15.7627 13.6784 15.5174 14.0454 15.2082 14.3547C14.899 14.6639 14.5319 14.9092 14.1279 15.0765C13.7238 15.2439 13.2908 15.33 12.8535 15.33Z" fill="white"/>
</svg>
