<?xml version="1.0" encoding="UTF-8" standalone="no"?><svg width="165" height="38" viewBox="0 0 165 38" fill="none" xmlns="http://www.w3.org/2000/svg">
<g clip-path="url(#clip0_1041_1358)">
<path d="M33.8451 29.9858V8.01465L17.3491 21.2752L0.853516 8.01465V29.9858" fill="#2461FF"/>
</g>
<path d="M70.4135 7.664V30H65.9335V15.472L59.9495 30H56.5575L50.5415 15.472V30H46.0615V7.664H51.1495L58.2535 24.272L65.3575 7.664H70.4135ZM91.3228 20.752C91.3228 21.392 91.2801 21.968 91.1948 22.48H78.2348C78.3414 23.76 78.7894 24.7627 79.5788 25.488C80.3681 26.2133 81.3388 26.576 82.4908 26.576C84.1548 26.576 85.3388 25.8613 86.0428 24.432H90.8748C90.3628 26.1387 89.3814 27.5467 87.9308 28.656C86.4801 29.744 84.6988 30.288 82.5868 30.288C80.8801 30.288 79.3441 29.9147 77.9788 29.168C76.6348 28.4 75.5788 27.3227 74.8108 25.936C74.0641 24.5493 73.6908 22.9493 73.6908 21.136C73.6908 19.3013 74.0641 17.6907 74.8108 16.304C75.5574 14.9173 76.6028 13.8507 77.9468 13.104C79.2908 12.3573 80.8374 11.984 82.5868 11.984C84.2721 11.984 85.7761 12.3467 87.0988 13.072C88.4428 13.7973 89.4774 14.832 90.2028 16.176C90.9494 17.4987 91.3228 19.024 91.3228 20.752ZM86.6828 19.472C86.6614 18.32 86.2454 17.4027 85.4348 16.72C84.6241 16.016 83.6321 15.664 82.4588 15.664C81.3494 15.664 80.4108 16.0053 79.6428 16.688C78.8961 17.3493 78.4374 18.2773 78.2668 19.472H86.6828ZM93.4408 21.072C93.4408 19.28 93.7928 17.6907 94.4968 16.304C95.2221 14.9173 96.2034 13.8507 97.4408 13.104C98.6781 12.3573 100.054 11.984 101.569 11.984C102.721 11.984 103.819 12.24 104.865 12.752C105.91 13.2427 106.742 13.904 107.361 14.736V6.32H111.905V30H107.361V27.376C106.806 28.2507 106.027 28.9547 105.025 29.488C104.022 30.0213 102.859 30.288 101.537 30.288C100.043 30.288 98.6781 29.904 97.4408 29.136C96.2034 28.368 95.2221 27.2907 94.4968 25.904C93.7928 24.496 93.4408 22.8853 93.4408 21.072ZM107.393 21.136C107.393 20.048 107.179 19.12 106.753 18.352C106.326 17.5627 105.75 16.9653 105.025 16.56C104.299 16.1333 103.521 15.92 102.689 15.92C101.857 15.92 101.089 16.1227 100.385 16.528C99.6808 16.9333 99.1048 17.5307 98.6568 18.32C98.2301 19.088 98.0168 20.0053 98.0168 21.072C98.0168 22.1387 98.2301 23.0773 98.6568 23.888C99.1048 24.6773 99.6808 25.2853 100.385 25.712C101.11 26.1387 101.878 26.352 102.689 26.352C103.521 26.352 104.299 26.1493 105.025 25.744C105.75 25.3173 106.326 24.72 106.753 23.952C107.179 23.1627 107.393 22.224 107.393 21.136ZM118.552 10.16C117.763 10.16 117.102 9.91467 116.568 9.424C116.056 8.912 115.8 8.28267 115.8 7.536C115.8 6.78933 116.056 6.17067 116.568 5.68C117.102 5.168 117.763 4.912 118.552 4.912C119.342 4.912 119.992 5.168 120.504 5.68C121.038 6.17067 121.304 6.78933 121.304 7.536C121.304 8.28267 121.038 8.912 120.504 9.424C119.992 9.91467 119.342 10.16 118.552 10.16ZM120.76 12.272V30H116.28V12.272H120.76ZM124.035 21.136C124.035 19.3013 124.408 17.7013 125.155 16.336C125.901 14.9493 126.936 13.8827 128.259 13.136C129.581 12.368 131.096 11.984 132.803 11.984C135 11.984 136.813 12.5387 138.243 13.648C139.693 14.736 140.664 16.272 141.155 18.256H136.323C136.067 17.488 135.629 16.8907 135.011 16.464C134.413 16.016 133.667 15.792 132.771 15.792C131.491 15.792 130.477 16.2613 129.731 17.2C128.984 18.1173 128.611 19.4293 128.611 21.136C128.611 22.8213 128.984 24.1333 129.731 25.072C130.477 25.9893 131.491 26.448 132.771 26.448C134.584 26.448 135.768 25.6373 136.323 24.016H141.155C140.664 25.936 139.693 27.4613 138.243 28.592C136.792 29.7227 134.979 30.288 132.803 30.288C131.096 30.288 129.581 29.9147 128.259 29.168C126.936 28.4 125.901 27.3333 125.155 25.968C124.408 24.5813 124.035 22.9707 124.035 21.136ZM143.285 21.072C143.285 19.28 143.637 17.6907 144.341 16.304C145.066 14.9173 146.037 13.8507 147.253 13.104C148.49 12.3573 149.866 11.984 151.381 11.984C152.703 11.984 153.855 12.2507 154.837 12.784C155.839 13.3173 156.639 13.9893 157.237 14.8V12.272H161.749V30H157.237V27.408C156.661 28.24 155.861 28.9333 154.837 29.488C153.834 30.0213 152.671 30.288 151.349 30.288C149.855 30.288 148.49 29.904 147.253 29.136C146.037 28.368 145.066 27.2907 144.341 25.904C143.637 24.496 143.285 22.8853 143.285 21.072ZM157.237 21.136C157.237 20.048 157.023 19.12 156.597 18.352C156.17 17.5627 155.594 16.9653 154.869 16.56C154.143 16.1333 153.365 15.92 152.533 15.92C151.701 15.92 150.933 16.1227 150.229 16.528C149.525 16.9333 148.949 17.5307 148.501 18.32C148.074 19.088 147.861 20.0053 147.861 21.072C147.861 22.1387 148.074 23.0773 148.501 23.888C148.949 24.6773 149.525 25.2853 150.229 25.712C150.954 26.1387 151.722 26.352 152.533 26.352C153.365 26.352 154.143 26.1493 154.869 25.744C155.594 25.3173 156.17 24.72 156.597 23.952C157.023 23.1627 157.237 22.224 157.237 21.136Z" fill="white"/>
<defs>
<clipPath id="clip0_1041_1358">
<rect width="33" height="21.9711" fill="white" transform="translate(0.853516 8.01465)"/>
</clipPath>
</defs>
</svg>
