<?xml version="1.0" encoding="UTF-8" standalone="no"?><svg width="25" height="24" viewBox="0 0 25 24" fill="none" xmlns="http://www.w3.org/2000/svg">
<path d="M22.8535 5.80021C22.1019 6.1263 21.3069 6.34187 20.4935 6.44021C21.3517 5.92753 21.9948 5.12099 22.3035 4.17021C21.4971 4.65027 20.6143 4.98851 19.6935 5.17021C19.0781 4.50278 18.2585 4.05851 17.3633 3.90706C16.4682 3.75562 15.5481 3.90557 14.7473 4.3334C13.9466 4.76123 13.3104 5.44274 12.9388 6.27105C12.5671 7.09935 12.4808 8.0276 12.6935 8.91021C11.0629 8.82774 9.46796 8.40316 8.01217 7.66407C6.55638 6.92498 5.27236 5.8879 4.24352 4.62021C3.88265 5.25038 3.69303 5.96403 3.69352 6.69021C3.69224 7.36459 3.85773 8.02883 4.17527 8.62377C4.49281 9.21872 4.95253 9.72592 5.51352 10.1002C4.86149 10.0825 4.2234 9.90751 3.65352 9.59021V9.64021C3.6584 10.5851 3.98951 11.4993 4.59083 12.2282C5.19215 12.957 6.02677 13.4559 6.95352 13.6402C6.59677 13.7488 6.22639 13.806 5.85352 13.8102C5.59541 13.8072 5.33794 13.7838 5.08352 13.7402C5.34743 14.553 5.85814 15.2634 6.54459 15.7724C7.23104 16.2814 8.05909 16.5638 8.91352 16.5802C7.47072 17.7155 5.6894 18.3351 3.85352 18.3402C3.51925 18.3413 3.18525 18.3213 2.85352 18.2802C4.72794 19.4905 6.91233 20.1329 9.14352 20.1302C10.6832 20.1462 12.2107 19.8552 13.6366 19.2743C15.0626 18.6934 16.3585 17.8341 17.4487 16.7467C18.5389 15.6593 19.4015 14.3656 19.9861 12.9411C20.5707 11.5166 20.8656 9.98994 20.8535 8.45021C20.8535 8.28021 20.8535 8.10021 20.8535 7.92021C21.6382 7.33502 22.315 6.61763 22.8535 5.80021Z" fill="white"/>
</svg>
